<mxfile host="app.diagrams.net" modified="2023-10-11T15:00:24.241Z" agent="Mozilla/5.0 (Windows NT 10.0; Win64; x64) AppleWebKit/537.36 (KHTML, like Gecko) Chrome/117.0.0.0 Safari/537.36" etag="NYkYc5l0E2WmD5B-qGmd" version="22.0.4" type="github">
  <diagram name="Pagina-1" id="Ygy5yfQHm3s8WBBkOKHJ">
    <mxGraphModel dx="819" dy="429" grid="1" gridSize="10" guides="1" tooltips="1" connect="1" arrows="1" fold="1" page="1" pageScale="1" pageWidth="827" pageHeight="1169" math="0" shadow="0">
      <root>
        <mxCell id="0" />
        <mxCell id="1" parent="0" />
        <mxCell id="aYw8s4LGPYsY6GY9-wbT-1" value="Amministratore" style="rounded=0;whiteSpace=wrap;html=1;" parent="1" vertex="1">
          <mxGeometry x="120" y="50" width="120" height="60" as="geometry" />
        </mxCell>
        <mxCell id="aYw8s4LGPYsY6GY9-wbT-2" value="" style="endArrow=classic;html=1;rounded=0;" parent="1" edge="1">
          <mxGeometry width="50" height="50" relative="1" as="geometry">
            <mxPoint x="180.64" y="110" as="sourcePoint" />
            <mxPoint x="181" y="170" as="targetPoint" />
          </mxGeometry>
        </mxCell>
        <mxCell id="sm0uZwe1ntu3Nj2_a3fd-27" style="edgeStyle=none;rounded=0;orthogonalLoop=1;jettySize=auto;html=1;entryX=0.5;entryY=0;entryDx=0;entryDy=0;" edge="1" parent="1" target="sm0uZwe1ntu3Nj2_a3fd-4">
          <mxGeometry relative="1" as="geometry">
            <mxPoint x="381" y="230" as="targetPoint" />
            <mxPoint x="241" y="200.0000000000001" as="sourcePoint" />
            <Array as="points">
              <mxPoint x="361" y="200" />
            </Array>
          </mxGeometry>
        </mxCell>
        <mxCell id="aYw8s4LGPYsY6GY9-wbT-3" value="Rivenditore" style="rounded=0;whiteSpace=wrap;html=1;" parent="1" vertex="1">
          <mxGeometry x="120" y="170" width="120" height="60" as="geometry" />
        </mxCell>
        <mxCell id="aYw8s4LGPYsY6GY9-wbT-7" value="" style="endArrow=classic;html=1;rounded=0;exitX=0.5;exitY=1;exitDx=0;exitDy=0;" parent="1" edge="1">
          <mxGeometry width="50" height="50" relative="1" as="geometry">
            <mxPoint x="181" y="230.0000000000001" as="sourcePoint" />
            <mxPoint x="181" y="290" as="targetPoint" />
          </mxGeometry>
        </mxCell>
        <mxCell id="aYw8s4LGPYsY6GY9-wbT-8" value="Cliente" style="rounded=0;whiteSpace=wrap;html=1;" parent="1" vertex="1">
          <mxGeometry x="120" y="290" width="120" height="60" as="geometry" />
        </mxCell>
        <mxCell id="sm0uZwe1ntu3Nj2_a3fd-3" value="Corso" style="shape=parallelogram;perimeter=parallelogramPerimeter;whiteSpace=wrap;html=1;fixedSize=1;" vertex="1" parent="1">
          <mxGeometry x="495" y="220" width="120" height="60" as="geometry" />
        </mxCell>
        <mxCell id="sm0uZwe1ntu3Nj2_a3fd-25" style="edgeStyle=none;rounded=0;orthogonalLoop=1;jettySize=auto;html=1;exitX=1;exitY=0.5;exitDx=0;exitDy=0;entryX=0;entryY=0.5;entryDx=0;entryDy=0;" edge="1" parent="1" source="sm0uZwe1ntu3Nj2_a3fd-4" target="sm0uZwe1ntu3Nj2_a3fd-3">
          <mxGeometry relative="1" as="geometry">
            <mxPoint x="500" y="255" as="targetPoint" />
            <mxPoint x="440" y="254.9999999999999" as="sourcePoint" />
          </mxGeometry>
        </mxCell>
        <mxCell id="sm0uZwe1ntu3Nj2_a3fd-30" value="SI" style="edgeLabel;html=1;align=center;verticalAlign=middle;resizable=0;points=[];" vertex="1" connectable="0" parent="sm0uZwe1ntu3Nj2_a3fd-25">
          <mxGeometry x="-0.1463" y="-1" relative="1" as="geometry">
            <mxPoint as="offset" />
          </mxGeometry>
        </mxCell>
        <mxCell id="sm0uZwe1ntu3Nj2_a3fd-29" value="" style="edgeStyle=none;rounded=0;orthogonalLoop=1;jettySize=auto;html=1;" edge="1" parent="1" source="sm0uZwe1ntu3Nj2_a3fd-4" target="sm0uZwe1ntu3Nj2_a3fd-12">
          <mxGeometry relative="1" as="geometry" />
        </mxCell>
        <mxCell id="sm0uZwe1ntu3Nj2_a3fd-34" value="NO" style="edgeLabel;html=1;align=center;verticalAlign=middle;resizable=0;points=[];" vertex="1" connectable="0" parent="sm0uZwe1ntu3Nj2_a3fd-29">
          <mxGeometry x="-0.2114" relative="1" as="geometry">
            <mxPoint as="offset" />
          </mxGeometry>
        </mxCell>
        <mxCell id="sm0uZwe1ntu3Nj2_a3fd-4" value="Acquistato" style="rhombus;whiteSpace=wrap;html=1;" vertex="1" parent="1">
          <mxGeometry x="321" y="240" width="80" height="30" as="geometry" />
        </mxCell>
        <mxCell id="sm0uZwe1ntu3Nj2_a3fd-12" value="" style="sketch=0;pointerEvents=1;shadow=0;dashed=0;html=1;strokeColor=none;fillColor=#505050;labelPosition=center;verticalLabelPosition=bottom;verticalAlign=top;outlineConnect=0;align=center;shape=mxgraph.office.security.lock_protected;" vertex="1" parent="1">
          <mxGeometry x="261" y="244" width="20" height="22" as="geometry" />
        </mxCell>
        <mxCell id="sm0uZwe1ntu3Nj2_a3fd-13" value="" style="sketch=0;pointerEvents=1;shadow=0;dashed=0;html=1;strokeColor=none;fillColor=#505050;labelPosition=center;verticalLabelPosition=bottom;verticalAlign=top;outlineConnect=0;align=center;shape=mxgraph.office.security.lock_unprotected;" vertex="1" parent="1">
          <mxGeometry x="391" y="266" width="18" height="20" as="geometry" />
        </mxCell>
        <mxCell id="sm0uZwe1ntu3Nj2_a3fd-22" value="&lt;div style=&quot;text-align: left; font-size: 8px;&quot;&gt;&lt;span style=&quot;background-color: initial;&quot;&gt;&lt;font style=&quot;font-size: 8px;&quot;&gt;• Titolo&lt;/font&gt;&lt;/span&gt;&lt;/div&gt;&lt;div style=&quot;text-align: left; font-size: 8px;&quot;&gt;&lt;span style=&quot;background-color: initial;&quot;&gt;&lt;font style=&quot;font-size: 8px;&quot;&gt;• Tipologia *&lt;/font&gt;&lt;/span&gt;&lt;/div&gt;&lt;div style=&quot;text-align: left; font-size: 8px;&quot;&gt;&lt;span style=&quot;background-color: initial;&quot;&gt;&lt;font style=&quot;font-size: 8px;&quot;&gt;• Durata&lt;/font&gt;&lt;/span&gt;&lt;/div&gt;&lt;div style=&quot;text-align: left; font-size: 8px;&quot;&gt;&lt;span style=&quot;background-color: initial;&quot;&gt;&lt;font style=&quot;font-size: 8px;&quot;&gt;• Limite Corso&lt;/font&gt;&lt;/span&gt;&lt;/div&gt;&lt;div style=&quot;text-align: left; font-size: 8px;&quot;&gt;&lt;span style=&quot;background-color: initial;&quot;&gt;&lt;font style=&quot;font-size: 8px;&quot;&gt;• Prezzo&lt;/font&gt;&lt;/span&gt;&lt;/div&gt;" style="rounded=0;whiteSpace=wrap;html=1;labelPosition=center;verticalLabelPosition=middle;align=center;verticalAlign=middle;" vertex="1" parent="1">
          <mxGeometry x="495" y="295" width="120" height="130" as="geometry" />
        </mxCell>
        <mxCell id="sm0uZwe1ntu3Nj2_a3fd-28" style="edgeStyle=none;rounded=0;orthogonalLoop=1;jettySize=auto;html=1;entryX=0.5;entryY=1;entryDx=0;entryDy=0;" edge="1" parent="1" target="sm0uZwe1ntu3Nj2_a3fd-4">
          <mxGeometry relative="1" as="geometry">
            <mxPoint x="361" y="360" as="targetPoint" />
            <mxPoint x="241" y="320" as="sourcePoint" />
            <Array as="points">
              <mxPoint x="361" y="320" />
            </Array>
          </mxGeometry>
        </mxCell>
        <mxCell id="sm0uZwe1ntu3Nj2_a3fd-31" value="" style="endArrow=none;html=1;rounded=0;exitX=0.5;exitY=0;exitDx=0;exitDy=0;" edge="1" parent="1" source="sm0uZwe1ntu3Nj2_a3fd-22" target="sm0uZwe1ntu3Nj2_a3fd-3">
          <mxGeometry width="50" height="50" relative="1" as="geometry">
            <mxPoint x="515" y="285" as="sourcePoint" />
            <mxPoint x="565" y="235" as="targetPoint" />
          </mxGeometry>
        </mxCell>
        <mxCell id="sm0uZwe1ntu3Nj2_a3fd-32" value="Utente" style="rounded=0;whiteSpace=wrap;html=1;" vertex="1" parent="1">
          <mxGeometry x="120" y="410" width="120" height="60" as="geometry" />
        </mxCell>
        <mxCell id="sm0uZwe1ntu3Nj2_a3fd-33" value="" style="endArrow=classic;html=1;rounded=0;exitX=0.5;exitY=1;exitDx=0;exitDy=0;" edge="1" parent="1">
          <mxGeometry width="50" height="50" relative="1" as="geometry">
            <mxPoint x="180.64" y="350" as="sourcePoint" />
            <mxPoint x="180.64" y="410" as="targetPoint" />
          </mxGeometry>
        </mxCell>
        <mxCell id="sm0uZwe1ntu3Nj2_a3fd-43" style="edgeStyle=none;rounded=0;orthogonalLoop=1;jettySize=auto;html=1;" edge="1" parent="1" source="sm0uZwe1ntu3Nj2_a3fd-35" target="sm0uZwe1ntu3Nj2_a3fd-3">
          <mxGeometry relative="1" as="geometry" />
        </mxCell>
        <mxCell id="sm0uZwe1ntu3Nj2_a3fd-35" value="Ordini" style="rounded=0;whiteSpace=wrap;html=1;" vertex="1" parent="1">
          <mxGeometry x="520" y="130" width="70" height="40" as="geometry" />
        </mxCell>
        <mxCell id="sm0uZwe1ntu3Nj2_a3fd-42" style="edgeStyle=none;rounded=0;orthogonalLoop=1;jettySize=auto;html=1;entryX=1;entryY=0.5;entryDx=0;entryDy=0;" edge="1" parent="1" source="sm0uZwe1ntu3Nj2_a3fd-36" target="sm0uZwe1ntu3Nj2_a3fd-35">
          <mxGeometry relative="1" as="geometry">
            <mxPoint x="625" y="160" as="targetPoint" />
            <Array as="points">
              <mxPoint x="625" y="150" />
            </Array>
          </mxGeometry>
        </mxCell>
        <mxCell id="sm0uZwe1ntu3Nj2_a3fd-36" value="Pagamento" style="rounded=0;whiteSpace=wrap;html=1;" vertex="1" parent="1">
          <mxGeometry x="590" y="40" width="70" height="40" as="geometry" />
        </mxCell>
        <mxCell id="sm0uZwe1ntu3Nj2_a3fd-41" style="edgeStyle=none;rounded=0;orthogonalLoop=1;jettySize=auto;html=1;entryX=0;entryY=0.5;entryDx=0;entryDy=0;" edge="1" parent="1" source="sm0uZwe1ntu3Nj2_a3fd-37" target="sm0uZwe1ntu3Nj2_a3fd-35">
          <mxGeometry relative="1" as="geometry">
            <mxPoint x="485" y="160" as="targetPoint" />
            <Array as="points">
              <mxPoint x="485" y="150" />
            </Array>
          </mxGeometry>
        </mxCell>
        <mxCell id="sm0uZwe1ntu3Nj2_a3fd-37" value="Crediti" style="rounded=0;whiteSpace=wrap;html=1;" vertex="1" parent="1">
          <mxGeometry x="450" y="40" width="70" height="40" as="geometry" />
        </mxCell>
        <mxCell id="sm0uZwe1ntu3Nj2_a3fd-48" style="edgeStyle=none;rounded=0;orthogonalLoop=1;jettySize=auto;html=1;strokeColor=#FF504A;" edge="1" parent="1" source="sm0uZwe1ntu3Nj2_a3fd-44" target="sm0uZwe1ntu3Nj2_a3fd-46">
          <mxGeometry relative="1" as="geometry">
            <Array as="points">
              <mxPoint x="391" y="210" />
            </Array>
          </mxGeometry>
        </mxCell>
        <mxCell id="sm0uZwe1ntu3Nj2_a3fd-44" value="" style="shape=mxgraph.signs.healthcare.eye;html=1;pointerEvents=1;fillColor=#000000;strokeColor=none;verticalLabelPosition=bottom;verticalAlign=top;align=center;" vertex="1" parent="1">
          <mxGeometry x="381" y="235" width="10" height="5" as="geometry" />
        </mxCell>
        <mxCell id="sm0uZwe1ntu3Nj2_a3fd-46" value="&lt;font style=&quot;&quot;&gt;&lt;span style=&quot;font-size: 8px;&quot;&gt;Problematica:&lt;/span&gt;&lt;br&gt;&lt;font style=&quot;font-size: 8px;&quot;&gt;Il rivenditore può vedere solo i corsi che l&#39;amministratore gli attiva in funzione delle certificazioni possedute.&lt;/font&gt;&lt;br&gt;&lt;/font&gt;" style="rounded=0;whiteSpace=wrap;html=1;labelBackgroundColor=none;fillColor=#f8cecc;strokeColor=#b85450;" vertex="1" parent="1">
          <mxGeometry x="270" y="70" width="150" height="90" as="geometry" />
        </mxCell>
        <mxCell id="sm0uZwe1ntu3Nj2_a3fd-51" value="" style="endArrow=none;html=1;rounded=0;exitX=1;exitY=0.5;exitDx=0;exitDy=0;entryX=0;entryY=1;entryDx=0;entryDy=0;" edge="1" parent="1" source="sm0uZwe1ntu3Nj2_a3fd-4" target="sm0uZwe1ntu3Nj2_a3fd-35">
          <mxGeometry width="50" height="50" relative="1" as="geometry">
            <mxPoint x="440.0799999999999" y="254.64" as="sourcePoint" />
            <mxPoint x="490" y="200" as="targetPoint" />
          </mxGeometry>
        </mxCell>
        <mxCell id="sm0uZwe1ntu3Nj2_a3fd-52" value="&lt;font style=&quot;font-size: 8px;&quot;&gt;Verifica Manuale Ordine&lt;/font&gt;" style="edgeLabel;html=1;align=center;verticalAlign=middle;resizable=0;points=[];" vertex="1" connectable="0" parent="sm0uZwe1ntu3Nj2_a3fd-51">
          <mxGeometry x="0.1527" y="-1" relative="1" as="geometry">
            <mxPoint as="offset" />
          </mxGeometry>
        </mxCell>
        <mxCell id="sm0uZwe1ntu3Nj2_a3fd-54" style="edgeStyle=none;rounded=0;orthogonalLoop=1;jettySize=auto;html=1;entryX=0;entryY=1;entryDx=0;entryDy=0;" edge="1" parent="1" source="sm0uZwe1ntu3Nj2_a3fd-53" target="aYw8s4LGPYsY6GY9-wbT-1">
          <mxGeometry relative="1" as="geometry" />
        </mxCell>
        <mxCell id="sm0uZwe1ntu3Nj2_a3fd-55" style="edgeStyle=none;rounded=0;orthogonalLoop=1;jettySize=auto;html=1;exitX=1;exitY=0;exitDx=0;exitDy=0;entryX=0;entryY=0.5;entryDx=0;entryDy=0;" edge="1" parent="1" source="sm0uZwe1ntu3Nj2_a3fd-53" target="aYw8s4LGPYsY6GY9-wbT-3">
          <mxGeometry relative="1" as="geometry" />
        </mxCell>
        <mxCell id="sm0uZwe1ntu3Nj2_a3fd-56" style="edgeStyle=none;rounded=0;orthogonalLoop=1;jettySize=auto;html=1;exitX=1;exitY=1;exitDx=0;exitDy=0;entryX=0;entryY=0.5;entryDx=0;entryDy=0;" edge="1" parent="1" source="sm0uZwe1ntu3Nj2_a3fd-53" target="aYw8s4LGPYsY6GY9-wbT-8">
          <mxGeometry relative="1" as="geometry" />
        </mxCell>
        <mxCell id="sm0uZwe1ntu3Nj2_a3fd-53" value="Profilo" style="ellipse;whiteSpace=wrap;html=1;aspect=fixed;" vertex="1" parent="1">
          <mxGeometry x="10" y="220" width="70" height="70" as="geometry" />
        </mxCell>
        <mxCell id="sm0uZwe1ntu3Nj2_a3fd-57" style="edgeStyle=none;rounded=0;orthogonalLoop=1;jettySize=auto;html=1;exitX=0.5;exitY=1;exitDx=0;exitDy=0;entryX=0.005;entryY=0.09;entryDx=0;entryDy=0;entryPerimeter=0;" edge="1" parent="1" source="sm0uZwe1ntu3Nj2_a3fd-53" target="sm0uZwe1ntu3Nj2_a3fd-32">
          <mxGeometry relative="1" as="geometry" />
        </mxCell>
        <mxCell id="sm0uZwe1ntu3Nj2_a3fd-59" style="edgeStyle=none;rounded=0;orthogonalLoop=1;jettySize=auto;html=1;entryX=0;entryY=1;entryDx=0;entryDy=0;" edge="1" parent="1" source="sm0uZwe1ntu3Nj2_a3fd-58" target="sm0uZwe1ntu3Nj2_a3fd-3">
          <mxGeometry relative="1" as="geometry">
            <mxPoint x="480" y="290" as="targetPoint" />
          </mxGeometry>
        </mxCell>
        <mxCell id="sm0uZwe1ntu3Nj2_a3fd-58" value="Docente" style="rounded=0;whiteSpace=wrap;html=1;" vertex="1" parent="1">
          <mxGeometry x="420" y="320" width="59" height="20" as="geometry" />
        </mxCell>
        <mxCell id="sm0uZwe1ntu3Nj2_a3fd-60" style="edgeStyle=none;rounded=0;orthogonalLoop=1;jettySize=auto;html=1;strokeColor=#FF504A;" edge="1" parent="1" source="sm0uZwe1ntu3Nj2_a3fd-62">
          <mxGeometry relative="1" as="geometry">
            <mxPoint x="560" y="190" as="sourcePoint" />
            <Array as="points">
              <mxPoint x="650" y="160" />
              <mxPoint x="740" y="160" />
            </Array>
            <mxPoint x="739.5" y="130" as="targetPoint" />
          </mxGeometry>
        </mxCell>
        <mxCell id="sm0uZwe1ntu3Nj2_a3fd-63" value="" style="edgeStyle=none;rounded=0;orthogonalLoop=1;jettySize=auto;html=1;strokeColor=#FF504A;" edge="1" parent="1" target="sm0uZwe1ntu3Nj2_a3fd-62">
          <mxGeometry relative="1" as="geometry">
            <mxPoint x="560" y="190" as="sourcePoint" />
            <Array as="points" />
            <mxPoint x="740" y="130" as="targetPoint" />
          </mxGeometry>
        </mxCell>
        <mxCell id="sm0uZwe1ntu3Nj2_a3fd-62" value="" style="sketch=0;outlineConnect=0;fontColor=#232F3E;gradientColor=none;fillColor=#232F3D;strokeColor=none;dashed=0;verticalLabelPosition=bottom;verticalAlign=top;align=center;html=1;fontSize=12;fontStyle=0;aspect=fixed;pointerEvents=1;shape=mxgraph.aws4.alert;" vertex="1" parent="1">
          <mxGeometry x="560" y="180" width="11.31" height="10" as="geometry" />
        </mxCell>
        <mxCell id="sm0uZwe1ntu3Nj2_a3fd-66" value="&lt;font style=&quot;&quot;&gt;&lt;span style=&quot;font-size: 8px;&quot;&gt;Problematica:&lt;/span&gt;&lt;br&gt;&lt;font style=&quot;font-size: 8px;&quot;&gt;Il prezzo deve variare in funzione del cliente. E&#39; il rivenditore a decidere il prezzo per ogni singolo cliente in base agli accordi presi. Da gestire con le &#39;Regole Rivenditore&#39;.&lt;/font&gt;&lt;br&gt;&lt;/font&gt;" style="rounded=0;whiteSpace=wrap;html=1;labelBackgroundColor=none;fillColor=#f8cecc;strokeColor=#b85450;" vertex="1" parent="1">
          <mxGeometry x="670" y="40" width="150" height="90" as="geometry" />
        </mxCell>
        <mxCell id="sm0uZwe1ntu3Nj2_a3fd-71" value="" style="endArrow=none;html=1;rounded=0;entryX=0.483;entryY=0.775;entryDx=0;entryDy=0;entryPerimeter=0;exitX=0.48;exitY=0.001;exitDx=0;exitDy=0;exitPerimeter=0;" edge="1" parent="1" source="sm0uZwe1ntu3Nj2_a3fd-35" target="sm0uZwe1ntu3Nj2_a3fd-68">
          <mxGeometry width="50" height="50" relative="1" as="geometry">
            <mxPoint x="520" y="180" as="sourcePoint" />
            <mxPoint x="570" y="130" as="targetPoint" />
          </mxGeometry>
        </mxCell>
        <mxCell id="sm0uZwe1ntu3Nj2_a3fd-68" value="&lt;font color=&quot;#ff0000&quot;&gt;Regole Rivenditore&lt;/font&gt;" style="shape=tape;whiteSpace=wrap;html=1;" vertex="1" parent="1">
          <mxGeometry x="505" y="90" width="100" height="10" as="geometry" />
        </mxCell>
      </root>
    </mxGraphModel>
  </diagram>
</mxfile>
